<svg xmlns="http://www.w3.org/2000/svg" width="512" height="512" viewBox="0 0 512 512">
  <rect width="512" height="512" rx="96" fill="#ffffff"/>
  <g transform="translate(79.45,416.13) scale(0.5052,-0.5052)">
    <path fill="#000000" d="M221 -66Q206 -60 186.0 -49.5Q166 -39 148.0 -22.0Q130 -5 120 19Q110 48 106.5 76.0Q103 104 104 141Q104 193 111.5 231.5Q119 270 135 310Q137 313 142.5 327.5Q148 342 155.5 359.0Q163 376 167 385Q175 402 191.5 430.5Q208 459 227 486Q256 529 276.0 556.5Q296 584 314.5 603.0Q333 622 355.5 640.0Q378 658 412 681Q434 697 468.5 701.0Q503 705 536.0 690.5Q569 676 585 636Q596 615 595.0 583.5Q594 552 583.0 516.5Q572 481 555.0 450.0Q538 419 517 400Q504 388 482.5 396.0Q461 404 447 417Q438 434 437.5 437.0Q437 440 441 441Q447 448 457.0 465.0Q467 482 477.0 501.5Q487 521 491 533Q499 575 502.0 588.5Q505 602 496 611Q492 615 484.5 614.0Q477 613 460 604Q437 594 405.5 563.5Q374 533 343 491Q303 438 276.0 397.0Q249 356 235 313Q233 309 228.5 298.0Q224 287 224 287Q225 283 221.0 267.5Q217 252 212 241Q201 195 199.0 152.5Q197 110 204.5 78.5Q212 47 227 32Q240 23 260.0 26.0Q280 29 306.0 40.0Q332 51 362 64Q386 74 406.0 86.0Q426 98 436 107Q444 113 456.5 119.5Q469 126 478 126Q492 131 499.0 118.0Q506 105 506 85Q506 71 486.0 51.0Q466 31 442 17Q434 9 420.5 2.5Q407 -4 393 -9Q372 -25 341.0 -40.0Q310 -55 278.5 -63.0Q247 -71 221 -66Z"/>
  </g>
</svg>
